<svg width="23" height="23" viewBox="0 0 23 23" fill="none" xmlns="http://www.w3.org/2000/svg">
<path d="M2.02546 4.98383C1.28387 6.06021 0.720277 7.26882 0.37854 8.56783H5.60967L2.02546 4.98383Z" fill="#29337A"/>
<path d="M8.27953 0.460297C6.95453 0.846171 5.72742 1.46191 4.64685 2.26503L8.27953 5.89769V0.460297Z" fill="#29337A"/>
<path d="M4.91687 20.9267C5.93043 21.636 7.0628 22.1851 8.27937 22.5393V17.5648L4.91687 20.9267Z" fill="#29337A"/>
<path d="M0.510498 14.8956C0.89074 16.1272 1.47341 17.2699 2.21807 18.2864L5.60888 14.8956H0.510498Z" fill="#29337A"/>
<path d="M2.21514 4.71692C2.15085 4.80481 2.08748 4.89395 2.02538 4.98403L5.60959 8.56804H0.378456C0.293678 8.89069 0.224485 9.21956 0.16748 9.55295H7.05155L2.21514 4.71692Z" fill="white"/>
<path d="M4.65015 20.737C4.73764 20.8022 4.82757 20.8643 4.91686 20.9268L8.27937 17.5646V22.5392C8.60241 22.6336 8.9305 22.7152 9.26428 22.7807V16.123L4.65015 20.737Z" fill="white"/>
<path d="M0.255005 13.9106C0.326382 14.2444 0.410627 14.573 0.510312 14.8956H5.60874L2.21793 18.2864C2.58671 18.7902 2.99565 19.2631 3.43999 19.7003L9.22961 13.9106H0.255005Z" fill="white"/>
<path d="M8.27942 0.460298V5.89769L4.6467 2.26522C4.1459 2.63765 3.67777 3.0511 3.24402 3.49869L9.26414 9.51881V0.218781C8.93056 0.28472 8.60246 0.366439 8.27942 0.460298Z" fill="white"/>
<path d="M8.27927 14.8608L8.24475 14.8956H8.27927V14.8608Z" fill="#D32030"/>
<path d="M9.22974 13.9106H9.26421V13.876L9.22974 13.9106Z" fill="#D32030"/>
<path d="M13.6553 9.55276H13.6221V9.58617L13.6553 9.55276Z" fill="#D32030"/>
<path d="M8.31324 8.56804L8.2793 8.53391V8.56804H8.31324Z" fill="#D32030"/>
<path d="M9.26416 9.51877V9.55276H9.29815L9.26416 9.51877Z" fill="#D32030"/>
<path d="M14.6069 19.9936V22.5715C15.8393 22.2265 16.9884 21.6827 18.0161 20.9741L15.2229 18.1809C14.9997 18.9651 14.918 19.3706 14.6069 19.9936Z" fill="#252F6C"/>
<path d="M15.2375 5.26691L18.2867 2.21764C17.1913 1.4154 15.9485 0.804034 14.6068 0.428162V3.07631C14.9654 3.79445 14.9956 4.34012 15.2375 5.26691Z" fill="#252F6C"/>
<path d="M20.7349 18.3534C21.5028 17.3204 22.1013 16.1543 22.4901 14.8956H17.2771L20.7349 18.3534Z" fill="#252F6C"/>
<path d="M22.6217 8.56804C22.2727 7.24159 21.6922 6.01031 20.9272 4.91702L17.2758 8.56804H22.6217Z" fill="#252F6C"/>
<path d="M15.9088 14.1055L16.6991 14.8958L20.4817 18.6784C20.5676 18.5709 20.6529 18.4638 20.735 18.3536L17.2772 14.8958H22.4902C22.5895 14.5735 22.6739 14.2446 22.7451 13.9109H15.9827C15.9716 14.0505 15.9221 13.9668 15.9088 14.1055Z" fill="#E7E7E7"/>
<path d="M15.118 5.84362L18.5464 2.41484C18.4605 2.34822 18.3745 2.28194 18.2867 2.21765L15.2375 5.26692C15.2691 5.38748 15.0886 5.72014 15.118 5.84362Z" fill="#E7E7E7"/>
<path d="M14.6069 2.86442V0.42798C14.2842 0.337569 13.9557 0.260947 13.6219 0.198456V1.38691C13.9884 1.7842 14.3169 2.28321 14.6069 2.86442Z" fill="#E7E7E7"/>
<path d="M15.8313 9.55276H22.8328C22.776 9.21938 22.7066 8.8907 22.6218 8.56785H17.2759L20.9273 4.91683C20.5684 4.40403 20.1694 3.92178 19.7336 3.47491L15.6208 7.58732C15.7316 8.33328 15.7812 8.7665 15.8313 9.55276Z" fill="#E7E7E7"/>
<path d="M15.0566 18.0144L18.0162 20.9743C18.5085 20.6353 18.972 20.258 19.4046 19.8483L15.5117 15.9553C15.3875 16.6752 15.24 17.3707 15.0566 18.0144Z" fill="#E7E7E7"/>
<path d="M13.6222 21.4764V22.801C13.9559 22.7389 14.2843 22.6619 14.6071 22.5714V19.9936C14.3169 20.575 13.9885 21.0796 13.6222 21.4764Z" fill="#E7E7E7"/>
<path d="M15.6208 7.5873L19.7332 3.4749C19.363 3.09466 18.966 2.74078 18.5462 2.41483L15.3148 5.64676C15.4584 6.24706 15.5237 6.93417 15.6208 7.5873Z" fill="#D71F28"/>
<path d="M10.926 0.0141783C11.1176 0.00490415 11.3086 0 11.4998 0C11.3075 0 11.1162 0.00490415 10.926 0.0141783Z" fill="#D32030"/>
<path d="M11.4998 23C11.3086 23 11.1176 22.9947 10.9264 22.9855C11.1165 22.9951 11.3076 23 11.4998 23Z" fill="#D32030"/>
<path d="M11.4998 23C12.2253 23 12.9339 22.9297 13.622 22.801V21.4763C13.018 22.1311 12.3113 23 11.4998 23Z" fill="#D32030"/>
<path d="M22.8325 9.55276H15.922C16.0135 10.9951 16.0024 12.4782 15.8889 13.9107H22.745C22.911 13.1329 22.9999 12.3271 22.9999 11.5002C22.9999 10.836 22.9407 10.1863 22.8325 9.55276Z" fill="#D71F28"/>
<path d="M15.9088 14.1055C15.8449 14.785 15.6222 15.3145 15.5115 15.9555L19.4044 19.8483C19.7895 19.4834 20.1495 19.093 20.4815 18.6784L16.699 14.8956L15.9088 14.1055Z" fill="#D71F28"/>
<path d="M13.6222 1.47241V0.198643C12.9342 0.0702606 12.2257 0 11.4999 0C12.3114 0 13.0181 0.817829 13.6222 1.47241Z" fill="#D32030"/>
<path d="M14.6069 20.4909C14.918 19.8678 15.1847 19.1504 15.4081 18.3663L14.6069 17.5652V20.4909Z" fill="#29337A"/>
<path d="M15.5077 4.9967C15.2655 4.06991 14.9656 3.22736 14.6069 2.50922V5.89712L15.5077 4.9967Z" fill="#29337A"/>
<path d="M16.1319 14.3285C16.145 14.1898 16.1568 14.0505 16.1681 13.9107H15.7141L16.1319 14.3285Z" fill="white"/>
<path d="M14.6069 5.89719V2.5091C14.3167 1.92788 13.9884 1.42853 13.6219 1.03159V7.3393L15.5999 5.36137C15.5701 5.23789 15.5388 5.11694 15.5076 4.99638L14.6069 5.89719Z" fill="white"/>
<path d="M13.6554 9.55279H16.2011C16.1512 8.76657 16.0717 7.99302 15.9611 7.24725L13.6554 9.55279Z" fill="white"/>
<path d="M13.6222 21.9683C13.9886 21.571 14.3169 21.072 14.6071 20.4908V17.565L15.4082 18.3661C15.592 17.7221 15.7461 17.034 15.8707 16.3141L13.6222 14.0658L13.6222 21.9683Z" fill="white"/>
<path d="M13.6221 21.9683V14.0657L15.8705 16.3142C15.981 15.673 16.0681 15.0081 16.1318 14.3285L15.7139 13.9107H16.1679C16.2814 12.4782 16.2924 10.995 16.2009 9.55276H13.6552L15.9607 7.24722C15.8636 6.5939 15.7434 5.962 15.5998 5.3615L13.6222 7.33943V1.03172C13.018 0.37694 12.3113 0 11.4998 0C11.3086 0 11.1176 0.00490415 10.926 0.0141783C10.3604 0.0424865 9.80569 0.112067 9.26419 0.218842V9.51882L3.24393 3.4987C2.87403 3.8804 2.52996 4.28711 2.21508 4.71692L6.0662 8.56804L7.05145 9.55295H0.167421C0.0595782 10.1863 0 10.8359 0 11.5002C0 12.3273 0.089343 13.1329 0.254919 13.9107H9.22972L3.44005 19.7003C3.81917 20.0728 4.22282 20.4196 4.65011 20.737L9.26405 16.123V22.7808C9.80549 22.8876 10.3606 22.9571 10.9262 22.9855C11.1174 22.9948 11.3084 23 11.4997 23C12.3113 23 13.018 22.6231 13.6221 21.9683Z" fill="#E51D35"/>
</svg>
