<svg width="23" height="23" viewBox="0 0 23 23" fill="none" xmlns="http://www.w3.org/2000/svg">
<path d="M11.5001 22.9997C17.8511 22.9997 22.9996 17.8512 22.9996 11.5002C22.9996 5.14917 17.8511 0.000671387 11.5001 0.000671387C5.14911 0.000671387 0.000610352 5.14917 0.000610352 11.5002C0.000610352 17.8512 5.14911 22.9997 11.5001 22.9997Z" fill="white"/>
<path d="M22.3427 7.66571H15.2572C15.5648 10.1223 15.5668 12.8291 15.263 15.2888H22.3578C22.7718 14.1021 22.9997 12.8278 22.9997 11.5001C22.9999 10.1549 22.7669 8.86499 22.3427 7.66571Z" fill="#0B0B0B"/>
<path d="M15.2572 7.66574H22.3426C22.3413 7.6621 22.3402 7.65904 22.3389 7.65574C20.8672 3.50576 17.0815 0.452508 12.533 0.0472107C14.293 1.01212 14.807 4.0692 15.2572 7.66574Z" fill="#338BC1"/>
<path d="M12.533 22.9523C17.0898 22.5462 20.881 19.4825 22.3471 15.3214C22.3509 15.3103 22.3542 15.2994 22.3582 15.2887H15.2632C14.8166 18.9047 14.3004 21.9834 12.533 22.9523Z" fill="#E4E4E4"/>
<path d="M0 11.5001C0 12.828 0.227873 14.1021 0.641862 15.2887H15.8551C16.1588 12.8289 16.1569 10.1223 15.8493 7.66571H0.657108C0.232923 8.86504 0 10.155 0 11.5001Z" fill="#151515"/>
<path d="M0.660746 7.65573C0.659484 7.65898 0.658367 7.66209 0.657104 7.66573H15.8493C15.3991 4.06919 14.2929 1.01215 12.5327 0.047245C12.1923 0.0170917 11.8479 0 11.4997 0C6.49708 0 2.24265 3.19508 0.660746 7.65573Z" fill="#3D91CF"/>
<path d="M15.8552 15.2887H0.641968C0.645804 15.2995 0.649251 15.3103 0.653039 15.3214C2.22878 19.7935 6.48898 22.9998 11.4998 22.9998C11.8481 22.9998 12.1924 22.9827 12.5328 22.9522C14.3005 21.9834 15.4087 18.9047 15.8552 15.2887Z" fill="#F3F4F5"/>
</svg>
