<svg width="24" height="24" viewBox="0 0 24 24" fill="none" xmlns="http://www.w3.org/2000/svg">
<path d="M5.625 0V19.7812H0V20.4844C0 22.4229 1.57711 24 3.51562 24H20.4844C22.4229 24 24 22.4229 24 20.4844V0H5.625ZM3.51562 22.5938C2.59889 22.5938 1.81692 22.006 1.52672 21.1875H17.0394C17.1452 21.7066 17.3659 22.1848 17.6735 22.5938H3.51562ZM22.5938 20.4844C22.5938 21.6475 21.6475 22.5938 20.4844 22.5938C19.3213 22.5938 18.375 21.6475 18.375 20.4844V19.7812H7.03125V1.40625H22.5938V20.4844Z" fill="#192332"/>
<path d="M9.84375 7.07812H19.7812V8.48438H9.84375V7.07812Z" fill="#192332"/>
<path d="M9.84375 9.89062H19.7812V11.2969H9.84375V9.89062Z" fill="#192332"/>
<path d="M9.84375 12.7031H19.7812V14.1094H9.84375V12.7031Z" fill="#192332"/>
</svg>
