<svg width="17" height="22" viewBox="0 0 17 22" fill="none" xmlns="http://www.w3.org/2000/svg">
<path d="M14.25 7.66668H13.2917V5.75001C13.2917 3.10501 11.145 0.958344 8.50001 0.958344C5.85501 0.958344 3.70834 3.10501 3.70834 5.75001V7.66668H2.75001C1.69584 7.66668 0.833344 8.52918 0.833344 9.58334V19.1667C0.833344 20.2208 1.69584 21.0833 2.75001 21.0833H14.25C15.3042 21.0833 16.1667 20.2208 16.1667 19.1667V9.58334C16.1667 8.52918 15.3042 7.66668 14.25 7.66668ZM5.62501 5.75001C5.62501 4.15918 6.90918 2.87501 8.50001 2.87501C10.0908 2.87501 11.375 4.15918 11.375 5.75001V7.66668H5.62501V5.75001ZM14.25 19.1667H2.75001V9.58334H14.25V19.1667ZM8.50001 16.2917C9.55418 16.2917 10.4167 15.4292 10.4167 14.375C10.4167 13.3208 9.55418 12.4583 8.50001 12.4583C7.44584 12.4583 6.58334 13.3208 6.58334 14.375C6.58334 15.4292 7.44584 16.2917 8.50001 16.2917Z" fill="#4183D7"/>
</svg>
