<svg width="23" height="23" viewBox="0 0 23 23" fill="none" xmlns="http://www.w3.org/2000/svg">
<g clip-path="url(#clip0)">
<path d="M11.5005 23C17.8515 23 23 17.8515 23 11.5005C23 5.14945 17.8515 0.000946045 11.5005 0.000946045C5.14949 0.000946045 0.000976562 5.14945 0.000976562 11.5005C0.000976562 17.8515 5.14949 23 11.5005 23Z" fill="white"/>
<path d="M22.3426 7.66568H15.2571C15.5649 10.1223 15.5667 12.8291 15.2631 15.2887H22.3577C22.7719 14.1021 22.9996 12.8278 22.9996 11.5001C22.9998 10.1549 22.7668 8.86501 22.3426 7.66568Z" fill="#2B479D"/>
<path d="M15.2572 7.66569H22.3426C22.3415 7.66205 22.3404 7.65899 22.339 7.65569C20.8673 3.50576 17.0813 0.452508 12.5326 0.0472107C14.293 1.01212 14.8072 4.0692 15.2572 7.66569Z" fill="#EFECEC"/>
<path d="M12.533 22.9523C17.0898 22.5462 20.881 19.4825 22.3471 15.3214C22.3509 15.3103 22.3542 15.2994 22.3582 15.2887H15.2634C14.8168 18.9047 14.3004 21.9833 12.533 22.9523Z" fill="#E63026"/>
<path d="M0 11.5C0 12.8279 0.228067 14.102 0.641862 15.2887H15.8551C16.159 12.8288 16.1569 10.1222 15.8495 7.66562H0.657157C0.232972 8.865 0 10.1549 0 11.5Z" fill="#3757A6"/>
<path d="M0.660746 7.65574C0.659678 7.65899 0.658561 7.6621 0.657104 7.66574H15.8494C15.3991 4.0692 14.2929 1.01216 12.5327 0.0472575C12.1923 0.0171042 11.848 6.10357e-05 11.4998 6.10357e-05C6.49708 1.24797e-05 2.24285 3.19504 0.660746 7.65574Z" fill="#EFEFEF"/>
<path d="M15.8551 15.2887H0.641846C0.645682 15.2994 0.649275 15.3103 0.652916 15.3213C2.2287 19.7934 6.48906 22.9998 11.4997 22.9998C11.848 22.9998 12.1923 22.9827 12.5327 22.9522C14.3004 21.9833 15.4085 18.9047 15.8551 15.2887Z" fill="#E73B36"/>
</g>
<defs>
<clipPath id="clip0">
<rect width="23" height="23" fill="white"/>
</clipPath>
</defs>
</svg>
