<svg width="16" height="16" viewBox="0 0 16 16" fill="none" xmlns="http://www.w3.org/2000/svg">
<path d="M11.5625 10.25H10.8712L10.6262 10.0137C11.4837 9.01625 12 7.72125 12 6.3125C12 3.17125 9.45375 0.625 6.3125 0.625C3.17125 0.625 0.625 3.17125 0.625 6.3125C0.625 9.45375 3.17125 12 6.3125 12C7.72125 12 9.01625 11.4837 10.0137 10.6262L10.25 10.8712V11.5625L14.625 15.9287L15.9287 14.625L11.5625 10.25ZM6.3125 10.25C4.13375 10.25 2.375 8.49125 2.375 6.3125C2.375 4.13375 4.13375 2.375 6.3125 2.375C8.49125 2.375 10.25 4.13375 10.25 6.3125C10.25 8.49125 8.49125 10.25 6.3125 10.25Z" fill="#192332"/>
</svg>
