<svg width="84" height="90" viewBox="0 0 84 90" fill="none" xmlns="http://www.w3.org/2000/svg">
<g>
<path d="M39 77C58.0989 69.8554 70.7565 51.606 70.7565 31.2147V18.8557C64.2088 18.8557 58.9008 13.5477 58.9008 7H39H19.0992C19.0992 13.5477 13.7913 18.8557 7.24353 18.8557V31.2145C7.24353 51.606 19.9011 69.8554 39 77Z" fill="#FFDB0C"/>
<path d="M39 77C58.0989 69.8554 70.7565 51.606 70.7565 31.2147V18.8557C64.2087 18.8557 58.9008 13.5477 58.9008 7H39C39 7 39 61.4141 39 77Z" fill="#FBBF00"/>
<path d="M34.5761 54.3431L24.0484 43.8156L29.8489 38.0151L34.5761 42.7423L48.1511 29.1672L53.9516 34.9676L34.5761 54.3431Z" fill="#F4F8FC"/>
<path d="M39 49.9192V38.3183L48.1511 29.1672L53.9516 34.9676L39 49.9192Z" fill="#E3EBF3"/>
</g>
<defs>
<filter id="filter0_d" x="-3" y="0" width="90" height="90" filterUnits="userSpaceOnUse" color-interpolation-filters="sRGB">
<feFlood flood-opacity="0" result="BackgroundImageFix"/>
<feColorMatrix in="SourceAlpha" type="matrix" values="0 0 0 0 0 0 0 0 0 0 0 0 0 0 0 0 0 0 127 0"/>
<feOffset dx="3" dy="3"/>
<feGaussianBlur stdDeviation="5"/>
<feColorMatrix type="matrix" values="0 0 0 0 0 0 0 0 0 0 0 0 0 0 0 0 0 0 0.15 0"/>
<feBlend mode="normal" in2="BackgroundImageFix" result="effect1_dropShadow"/>
<feBlend mode="normal" in="SourceGraphic" in2="effect1_dropShadow" result="shape"/>
</filter>
</defs>
</svg>
